<?xml version="1.0" encoding="utf-8"?>
<!-- Generator: Adobe Illustrator 23.0.1, SVG Export Plug-In . SVG Version: 6.00 Build 0)  -->
<svg viewBox="0 0 43 129" fill="none" xmlns="http://www.w3.org/2000/svg">
<path d="M4.24402 122.14H8.16402V114.524H11.888L11.888 122.14H19V126.956H0.520023L0.520022 112.592H4.24402L4.24402 122.14Z" fill="white"/>
<path d="M12.252 102.195V105.079H19V109.811H0.520022L0.520022 100.991C0.520022 98.7515 1.02402 97.0341 2.03202 95.8395C3.04002 94.6261 4.49602 94.0195 6.40002 94.0195C7.74402 94.0195 8.86402 94.3275 9.76002 94.9435C10.656 95.5595 11.3187 96.4555 11.748 97.6315L19 92.9275V98.2475L12.252 102.195ZM8.83602 105.079V101.803C8.83602 100.777 8.64936 100.03 8.27602 99.5635C7.90269 99.0968 7.30536 98.8635 6.48402 98.8635C5.68136 98.8635 5.09335 99.0968 4.72002 99.5635C4.34669 100.03 4.16002 100.777 4.16002 101.803L4.16002 105.079H8.83602Z" fill="white"/>
<path d="M19 73.8468V79.1948L9.00402 84.9348L6.20402 86.3348V86.3628L9.67602 86.2508H19V90.5068H0.520021L0.520021 85.1588L10.516 79.4188L13.316 78.0188V77.9908L9.84402 78.1028H0.520021L0.52002 73.8468H19Z" fill="white"/>
<path d="M11.076 62.6969L13.792 64.9369H19V69.7529H0.52002L0.52002 64.9369H8.72402L0.52002 58.3289L0.52002 52.9809L8.02402 59.2529L19 52.6449V58.1049L11.076 62.6969Z" fill="white"/>
<path d="M23.24 119.732C23.24 117.977 23.5014 116.484 24.024 115.252C24.5467 114.001 25.396 112.844 26.572 111.78L29.708 114.496C28.7747 115.112 28.0934 115.84 27.664 116.68C27.216 117.501 26.992 118.491 26.992 119.648C26.992 120.619 27.16 121.365 27.496 121.888C27.832 122.411 28.28 122.672 28.84 122.672C29.3067 122.672 29.6894 122.401 29.988 121.86C30.268 121.3 30.5294 120.357 30.772 119.032C31.2387 116.475 31.92 114.655 32.816 113.572C33.712 112.471 34.972 111.92 36.596 111.92C37.772 111.92 38.7894 112.256 39.648 112.928C40.5067 113.6 41.16 114.533 41.608 115.728C42.056 116.904 42.28 118.239 42.28 119.732C42.28 121.823 42.028 123.521 41.524 124.828C41.0014 126.135 40.208 127.264 39.144 128.216L35.784 125.752C36.792 125.024 37.5014 124.203 37.912 123.288C38.3227 122.373 38.528 121.272 38.528 119.984C38.528 118.957 38.388 118.192 38.108 117.688C37.8094 117.165 37.3894 116.904 36.848 116.904C36.4187 116.904 36.0734 117.184 35.812 117.744C35.532 118.285 35.2707 119.2 35.028 120.488C34.7107 122.075 34.3374 123.391 33.908 124.436C33.46 125.463 32.8627 126.265 32.116 126.844C31.3694 127.404 30.4174 127.684 29.26 127.684C28.1027 127.684 27.0667 127.376 26.152 126.76C25.2374 126.125 24.528 125.211 24.024 124.016C23.5014 122.803 23.24 121.375 23.24 119.732Z" fill="white"/>
<path d="M42 92.2765V97.6245L32.004 103.364L29.204 104.764V104.792L32.676 104.68H42V108.936H23.52V103.588L33.516 97.8485L36.316 96.4485V96.4205L32.844 96.5325H23.52V92.2765H42Z" fill="white"/>
<path d="M23.24 80.9586C23.24 79.2039 23.5014 77.7106 24.024 76.4786C24.5467 75.2279 25.396 74.0706 26.572 73.0066L29.708 75.7226C28.7747 76.3386 28.0934 77.0666 27.664 77.9066C27.216 78.7279 26.992 79.7172 26.992 80.8746C26.992 81.8452 27.16 82.5919 27.496 83.1146C27.832 83.6372 28.28 83.8986 28.84 83.8986C29.3067 83.8986 29.6894 83.6279 29.988 83.0866C30.268 82.5266 30.5294 81.5839 30.772 80.2586C31.2387 77.7012 31.92 75.8812 32.816 74.7986C33.712 73.6972 34.972 73.1466 36.596 73.1466C37.772 73.1466 38.7894 73.4826 39.648 74.1546C40.5067 74.8266 41.16 75.7599 41.608 76.9546C42.056 78.1306 42.28 79.4652 42.28 80.9586C42.28 83.0492 42.028 84.7479 41.524 86.0546C41.0014 87.3612 40.208 88.4906 39.144 89.4426L35.784 86.9786C36.792 86.2506 37.5014 85.4292 37.912 84.5146C38.3227 83.5999 38.528 82.4986 38.528 81.2106C38.528 80.1839 38.388 79.4186 38.108 78.9146C37.8094 78.3919 37.3894 78.1306 36.848 78.1306C36.4187 78.1306 36.0734 78.4106 35.812 78.9706C35.532 79.5119 35.2707 80.4266 35.028 81.7146C34.7107 83.3012 34.3374 84.6172 33.908 85.6626C33.46 86.6892 32.8627 87.4919 32.116 88.0706C31.3694 88.6306 30.4174 88.9106 29.26 88.9106C28.1027 88.9106 27.0667 88.6026 26.152 87.9866C25.2374 87.3519 24.528 86.4372 24.024 85.2426C23.5014 84.0292 23.24 82.6012 23.24 80.9586Z" fill="white"/>
<path d="M38.276 56.079H42L42 70.163H23.52V65.347H38.276V56.079Z" fill="white"/>
<path d="M42 45.8304V51.4864L23.52 58.0664V52.9984L34.692 49.6104L38.332 48.6024L34.748 47.6224L23.52 44.1784V39.2784L42 45.8304Z" fill="white"/>
<path d="M23.52 29.2371C23.52 26.3438 24.3227 24.1318 25.928 22.6011C27.5147 21.0518 29.792 20.2771 32.76 20.2771C35.728 20.2771 38.0147 21.0518 39.62 22.6011C41.2067 24.1318 42 26.3438 42 29.2371V37.0771H23.52L23.52 29.2371ZM38.36 29.7131C38.36 28.1638 37.8934 27.0251 36.96 26.2971C36.0267 25.5691 34.6267 25.2051 32.76 25.2051C30.8934 25.2051 29.4934 25.5691 28.56 26.2971C27.6267 27.0251 27.16 28.1638 27.16 29.7131V32.2611H38.36V29.7131Z" fill="white"/>
<path d="M35.252 9.36343V12.2474H42V16.9794L23.52 16.9794V8.15943C23.52 5.91943 24.024 4.2021 25.032 3.00743C26.04 1.7941 27.496 1.18743 29.4 1.18743C30.744 1.18743 31.864 1.49543 32.76 2.11143C33.656 2.72743 34.3187 3.62343 34.748 4.79943L42 0.0954285V5.41543L35.252 9.36343ZM31.836 12.2474V8.97143C31.836 7.94476 31.6494 7.1981 31.276 6.73143C30.9027 6.26476 30.3054 6.03143 29.484 6.03143C28.6814 6.03143 28.0934 6.26476 27.72 6.73143C27.3467 7.1981 27.16 7.94476 27.16 8.97143V12.2474L31.836 12.2474Z" fill="white"/>
</svg>